<?xml version="1.0" standalone="no"?>
<!DOCTYPE svg PUBLIC "-//W3C//DTD SVG 20010904//EN"
 "http://www.w3.org/TR/2001/REC-SVG-20010904/DTD/svg10.dtd">
<svg version="1.0" xmlns="http://www.w3.org/2000/svg"
 width="478.000000pt" height="478.000000pt" viewBox="0 0 478.000000 478.000000"
 preserveAspectRatio="xMidYMid meet">
<metadata>
Created by potrace 1.14, written by Peter Selinger 2001-2017
</metadata>
<g transform="translate(0.000000,478.000000) scale(0.100000,-0.100000)"
fill="#000000" stroke="none">
<path d="M2218 4715 c-2 -2 -32 -5 -68 -9 -63 -5 -94 -9 -170 -21 -254 -40
-625 -187 -852 -337 -204 -134 -409 -318 -550 -493 -279 -347 -464 -793 -506
-1225 -14 -142 -5 -550 12 -579 2 -3 7 -28 10 -56 24 -178 112 -448 212 -646
264 -526 728 -943 1269 -1142 134 -49 241 -80 320 -93 22 -3 43 -8 47 -10 4
-3 26 -7 50 -10 24 -3 49 -7 56 -10 76 -24 522 -25 677 0 363 58 660 172 952
366 350 232 619 538 802 913 165 337 238 653 238 1027 0 289 -47 556 -142 805
-14 39 -29 79 -32 90 -12 42 -142 285 -197 370 -32 50 -88 128 -125 175 -69
89 -265 291 -340 350 -24 19 -50 41 -58 49 -7 7 -69 50 -137 95 -324 217 -669
342 -1061 385 -72 8 -400 13 -407 6z m427 -208 c18 -4 44 -8 140 -23 65 -10
256 -64 351 -99 83 -31 237 -103 318 -149 52 -29 218 -144 276 -191 75 -61
200 -178 200 -188 0 -9 -488 -497 -497 -497 -5 0 -242 235 -529 521 l-521 521
-1003 -1002 -1003 -1002 522 -522 c286 -286 521 -524 521 -528 0 -10 -488
-498 -498 -498 -4 0 -41 37 -82 81 -41 45 -80 87 -85 93 -6 6 -24 29 -40 51
-17 22 -33 42 -36 45 -9 7 -112 166 -136 210 -11 19 -32 56 -46 83 -79 142
-177 432 -202 602 -4 22 -10 56 -14 75 -17 79 -22 408 -9 527 32 279 111 534
240 776 228 426 591 759 1038 955 99 43 275 101 350 116 14 2 48 9 77 15 29 6
74 13 100 17 26 4 71 10 98 14 54 7 437 5 470 -3z m1569 -1018 c161 -269 255
-548 293 -864 10 -78 10 -381 1 -465 -80 -742 -559 -1404 -1239 -1710 -210
-94 -399 -146 -644 -177 -77 -10 -389 -10 -480 0 -228 25 -488 103 -707 213
-97 48 -249 140 -306 185 l-23 18 244 244 244 245 394 -394 c217 -217 398
-394 402 -394 5 0 458 449 1007 998 l999 998 -395 395 c-217 216 -394 397
-394 402 0 4 108 116 241 248 l241 241 38 -54 c22 -29 59 -87 84 -129z"/>
</g>
</svg>
